<svg xmlns="http://www.w3.org/2000/svg" viewBox="0 0 200 220" fill="none">
  <!-- Shield outline -->
  <path d="M100 10 L180 50 Q190 60 190 80 L190 140 Q190 180 100 210 Q10 180 10 140 L10 80 Q10 60 20 50 Z" fill="#E5B840"/>
  
  <!-- Top left curved arrow -->
  <path d="M35 75 Q25 90 25 110 Q25 130 35 145 L50 138 Q42 125 42 110 Q42 95 50 82 Z" fill="#E5B840"/>
  
  <!-- Arrow head for left curved arrow -->
  <path d="M30 65 L35 75 L45 70 Z" fill="#E5B840"/>
  
  <!-- Top right upward arrow -->
  <path d="M145 40 L165 20 L185 40 L172 40 L172 75 L158 75 L158 40 Z" fill="#E5B840"/>
  
  <!-- Center lightning bolt (white cutout) -->
  <path d="M115 70 L85 115 L100 115 L75 165 L125 115 L110 115 L135 70 Z" fill="white"/>
  
  <!-- Bottom right curved section -->
  <path d="M165 145 Q175 130 175 110 Q175 90 165 75 L150 82 Q158 95 158 110 Q158 125 150 138 Z" fill="#E5B840"/>
  
  <!-- Bottom lightning tail -->
  <path d="M70 190 Q100 205 130 190 L125 183 Q100 195 75 183 Z" fill="#E5B840"/>
</svg>
